<?xml version="1.0" standalone="no"?><!DOCTYPE svg PUBLIC "-//W3C//DTD SVG 1.1//EN" "http://www.w3.org/Graphics/SVG/1.1/DTD/svg11.dtd"><svg width="100%" height="100%" viewBox="0 0 1936 1998" version="1.1" xmlns="http://www.w3.org/2000/svg" xmlns:xlink="http://www.w3.org/1999/xlink" xml:space="preserve" style="fill-rule:evenodd;clip-rule:evenodd;stroke-linejoin:round;stroke-miterlimit:1.41421;"><path id="Calque_x0020_1" d="M1935.4,1040.25c0,107.25 -20.189,219.676 -63.833,306.676c-494.198,-257.285 -496.821,-257.117 -496.821,-257.117c-93,-36.75 -202.096,-121.559 -202.096,-209.309c0,-182.25 135.75,-246 288.75,-246c148.5,0 281.25,51.75 417.75,105c38.25,108 55.5,189.75 55.5,300l0.75,0.75ZM1573.15,1824.75c-22.5,-69 -74.25,-76.5 -84,-81.75l-480,-231c-286.5,-125.25 -459,-360 -459,-664.5c0,-426 390.629,-671.773 819.629,-705.523c14.25,0 1.453,6.039 0.703,0.039c-88.972,-60.364 -239.082,-142.016 -407.832,-142.016c-573,42.75 -977.25,444 -962.25,1029.75c-15,519.75 389.25,967.5 962.25,967.5c220.5,0 433.5,-57 609.75,-171.75l0.75,-0.75Z" style="fill:#FFF;fill-rule:nonzero;"/></svg>
